<svg width="40" height="40" viewBox="0 0 40 40" fill="none" xmlns="http://www.w3.org/2000/svg">
<path d="M11.6667 28.3333C13.9679 28.3333 15.8333 26.4679 15.8333 24.1667C15.8333 21.8655 13.9679 20 11.6667 20C9.36548 20 7.5 21.8655 7.5 24.1667C7.5 26.4679 9.36548 28.3333 11.6667 28.3333Z" stroke="white" stroke-width="2" stroke-linecap="round" stroke-linejoin="round"/>
<path d="M28.3333 28.3333C30.6345 28.3333 32.5 26.4679 32.5 24.1667C32.5 21.8655 30.6345 20 28.3333 20C26.0321 20 24.1667 21.8655 24.1667 24.1667C24.1667 26.4679 26.0321 28.3333 28.3333 28.3333Z" stroke="white" stroke-width="2" stroke-linecap="round" stroke-linejoin="round"/>
<path d="M20 11.6666C22.3012 11.6666 24.1667 9.80111 24.1667 7.49992C24.1667 5.19873 22.3012 3.33325 20 3.33325C17.6988 3.33325 15.8333 5.19873 15.8333 7.49992C15.8333 9.80111 17.6988 11.6666 20 11.6666Z" stroke="white" stroke-width="2" stroke-linecap="round" stroke-linejoin="round"/>
<path d="M20 36.6666C20 32.0643 16.269 28.3333 11.6667 28.3333C7.06429 28.3333 3.33333 32.0643 3.33333 36.6666" stroke="white" stroke-width="2" stroke-linecap="round" stroke-linejoin="round"/>
<path d="M36.6667 36.6666C36.6667 32.0643 32.9357 28.3333 28.3333 28.3333C23.731 28.3333 20 32.0643 20 36.6666" stroke="white" stroke-width="2" stroke-linecap="round" stroke-linejoin="round"/>
<path d="M28.3333 20.0001C28.3333 15.3977 24.6023 11.6667 20 11.6667C15.3977 11.6667 11.6667 15.3977 11.6667 20.0001" stroke="white" stroke-width="2" stroke-linecap="round" stroke-linejoin="round"/>
</svg>
