<svg width="40" height="40" viewBox="0 0 40 40" fill="none" xmlns="http://www.w3.org/2000/svg">
<path d="M20 17.5V36.6667C17.2572 33.3333 8.85717 33.3333 5 33.3333V15C13.2286 15 18.4286 16.6667 20 17.5Z" stroke="white" stroke-width="2" stroke-linecap="round" stroke-linejoin="round"/>
<path d="M20 17.5V36.6667C22.7428 33.3333 31.1428 33.3333 35 33.3333V15C26.7714 15 21.5714 16.6667 20 17.5Z" stroke="white" stroke-width="2" stroke-linecap="round" stroke-linejoin="round"/>
<path d="M20 16.6666C23.6819 16.6666 26.6667 13.6818 26.6667 9.99992C26.6667 6.31802 23.6819 3.33325 20 3.33325C16.3181 3.33325 13.3333 6.31802 13.3333 9.99992C13.3333 13.6818 16.3181 16.6666 20 16.6666Z" stroke="white" stroke-width="2"/>
</svg>
